<svg xmlns="http://www.w3.org/2000/svg" viewBox="0 0 80 80" fill-rule="evenodd" role="img" aria-label="Midiocre"><style>path{fill:#0f172a}@media(prefers-color-scheme:dark){path{fill:#f8fafc}}</style><path d="M25.154,15.421L43.853,15.421C44.332,18.432,45.194,20.657,46.357,22.387C48.011,24.858,50.292,26.439,53.302,27.675C60.531,30.636,72.358,30.774,80,30.6L79.996,54.627C69.651,54.149,57.5,53.067,47.014,48.643C45.96,48.197,44.753,48.311,43.797,48.947C42.844,49.579,42.269,50.648,42.269,51.791L42.269,61.645C34.57,61.629,34.015,61.722,31.24,61.471C24.927,60.9,18.918,58.845,13.797,55.085C12.755,54.324,11.378,54.21,10.231,54.793C9.08,55.373,8.355,56.552,8.355,57.841L8.355,64.579L0,64.579L0,15.421L10.324,15.421C10.588,18.582,11.167,23.071,12.496,27.525C13.866,32.119,16.049,36.641,19.348,39.87C20.328,40.835,21.795,41.114,23.063,40.584C24.331,40.049,25.154,38.809,25.154,37.431L25.154,15.421Z"/></svg>
