<svg xmlns="http://www.w3.org/2000/svg" viewBox="0 0 80 80" fill-rule="evenodd" role="img" aria-label="Chordica"><style>path{fill:#0f172a}@media(prefers-color-scheme:dark){path{fill:#f8fafc}}</style><path d="M45.857,70.509C45.401,69.105,43.991,68.241,42.533,68.472C41.074,68.703,39.999,69.96,39.999,71.437C39.999,73.382,39.999,75.152,39.999,76.547C39.999,77.379,39.655,78.173,39.047,78.741C38.439,79.308,37.621,79.598,36.792,79.541C16.402,77.888,0.34,60.801,0.34,39.991C0.34,19.182,16.402,2.094,36.794,0.459C37.618,0.402,38.43,0.69,39.034,1.254C39.639,1.818,39.983,2.608,39.983,3.435C39.999,4.829,39.999,6.599,39.999,8.545C39.999,10.021,41.074,11.279,42.533,11.51C43.991,11.741,45.401,10.876,45.857,9.472C46.504,7.481,47.097,5.658,47.563,4.224C47.834,3.39,48.424,2.698,49.206,2.3C49.987,1.902,50.895,1.831,51.729,2.102C52.078,2.215,52.433,2.33,52.781,2.443C53.615,2.714,54.308,3.305,54.706,4.087C55.104,4.868,55.175,5.776,54.904,6.61C53.817,9.955,52.043,15.416,50.486,20.208C50.043,21.57,50.528,23.063,51.687,23.904C52.847,24.747,54.416,24.747,55.574,23.904C59.65,20.943,64.296,17.568,67.141,15.5C67.851,14.986,68.736,14.772,69.602,14.91C70.469,15.047,71.245,15.522,71.76,16.232C71.975,16.529,72.195,16.83,72.41,17.127C72.926,17.836,73.138,18.722,73.001,19.587C72.864,20.454,72.388,21.23,71.679,21.746C68.832,23.813,64.187,27.188,60.112,30.15C58.952,30.991,58.467,32.484,58.91,33.846C59.353,35.208,60.623,36.132,62.055,36.132L76.353,36.132C77.23,36.132,78.07,36.479,78.691,37.1C79.311,37.72,79.66,38.561,79.66,39.438C79.66,39.804,79.66,40.178,79.66,40.543C79.66,41.42,79.311,42.262,78.691,42.882C78.07,43.502,77.23,43.851,76.353,43.851C72.835,43.851,67.093,43.851,62.055,43.851C60.623,43.851,59.353,44.773,58.91,46.135C58.467,47.498,58.952,48.99,60.112,49.833C64.187,52.794,68.832,56.169,71.679,58.236C72.388,58.752,72.864,59.528,73.001,60.394C73.138,61.26,72.926,62.145,72.41,62.855C72.195,63.152,71.975,63.453,71.76,63.749C71.245,64.459,70.469,64.935,69.602,65.072C68.736,65.209,67.851,64.997,67.141,64.481C64.296,62.413,59.65,59.038,55.574,56.077C54.416,55.235,52.847,55.235,51.687,56.077C50.528,56.92,50.043,58.412,50.486,59.775C52.043,64.565,53.817,70.026,54.904,73.372C55.175,74.206,55.104,75.113,54.706,75.895C54.308,76.676,53.615,77.268,52.781,77.539C52.433,77.652,52.078,77.768,51.729,77.88C50.895,78.151,49.987,78.08,49.206,77.681C48.424,77.283,47.834,76.591,47.563,75.757C47.097,74.323,46.504,72.501,45.857,70.509Z"/></svg>
